<svg xmlns="http://www.w3.org/2000/svg" version="1.1" xmlns:xlink="http://www.w3.org/1999/xlink" xmlns:svgjs="http://svgjs.dev/svgjs" viewBox="0 0 800 800"><defs><linearGradient x1="50%" y1="0%" x2="50%" y2="100%" id="ffflurry-grad" gradientTransform="rotate(270)"><stop stop-color="hsl(0, 0%, 100%)" stop-opacity="1" offset="0%"></stop><stop stop-color="hsl(37, 99%, 67%)" stop-opacity="1" offset="45%"></stop><stop stop-color="hsl(316, 73%, 52%)" stop-opacity="1" offset="100%"></stop></linearGradient></defs><rect width="100%" height="100%" fill="hsl(0, 0%, 100%)"></rect><g fill="url(#ffflurry-grad)"><rect width="785" height="3" x="162.5" y="420.5" rx="1.5" transform="rotate(45, 555, 422)" opacity="0.95"></rect><rect width="313" height="3" x="376.5" y="573.5" rx="1.5" transform="rotate(45, 533, 575)" opacity="0.59"></rect><rect width="1332" height="3" x="-544" y="385.5" rx="1.5" transform="rotate(45, 122, 387)" opacity="0.19"></rect><rect width="818" height="3" x="298" y="131.5" rx="1.5" transform="rotate(45, 707, 133)" opacity="0.51"></rect><rect width="1241" height="3" x="-160.5" y="93.5" rx="1.5" transform="rotate(45, 460, 95)" opacity="0.49"></rect><rect width="585" height="3" x="368.5" y="714.5" rx="1.5" transform="rotate(45, 661, 716)" opacity="0.44"></rect><rect width="514" height="3" x="-96" y="115.5" rx="1.5" transform="rotate(45, 161, 117)" opacity="0.11"></rect><rect width="755" height="3" x="353.5" y="477.5" rx="1.5" transform="rotate(45, 731, 479)" opacity="0.15"></rect><rect width="499" height="3" x="347.5" y="277.5" rx="1.5" transform="rotate(45, 597, 279)" opacity="0.45"></rect><rect width="774" height="3" x="-263" y="666.5" rx="1.5" transform="rotate(45, 124, 668)" opacity="0.75"></rect><rect width="1457" height="3" x="-372.5" y="329.5" rx="1.5" transform="rotate(45, 356, 331)" opacity="0.92"></rect><rect width="792" height="3" x="-39" y="648.5" rx="1.5" transform="rotate(45, 357, 650)" opacity="0.32"></rect></g></svg>