<svg xmlns="http://www.w3.org/2000/svg" version="1.1" xmlns:xlink="http://www.w3.org/1999/xlink" xmlns:svgjs="http://svgjs.dev/svgjs" viewBox="0 0 800 800"><defs><linearGradient x1="50%" y1="0%" x2="50%" y2="100%" id="gggyrate-grad"><stop stop-color="hsl(37, 99%, 67%)" stop-opacity="1" offset="0%"></stop><stop stop-color="hsl(316, 73%, 52%)" stop-opacity="1" offset="100%"></stop></linearGradient></defs><g stroke-width="6" stroke="url(#gggyrate-grad)" fill="none"><rect width="1353" height="1353" x="-276.5" y="-276.5" transform="rotate(82, 400, 400)" opacity="0.05"></rect><rect width="1320" height="1320" x="-260" y="-260" transform="rotate(80, 400, 400)" opacity="0.07"></rect><rect width="1287" height="1287" x="-243.5" y="-243.5" transform="rotate(78, 400, 400)" opacity="0.10"></rect><rect width="1254" height="1254" x="-227" y="-227" transform="rotate(76, 400, 400)" opacity="0.12"></rect><rect width="1221" height="1221" x="-210.5" y="-210.5" transform="rotate(74, 400, 400)" opacity="0.15"></rect><rect width="1188" height="1188" x="-194" y="-194" transform="rotate(72, 400, 400)" opacity="0.17"></rect><rect width="1155" height="1155" x="-177.5" y="-177.5" transform="rotate(70, 400, 400)" opacity="0.19"></rect><rect width="1122" height="1122" x="-161" y="-161" transform="rotate(68, 400, 400)" opacity="0.22"></rect><rect width="1089" height="1089" x="-144.5" y="-144.5" transform="rotate(66, 400, 400)" opacity="0.24"></rect><rect width="1056" height="1056" x="-128" y="-128" transform="rotate(64, 400, 400)" opacity="0.26"></rect><rect width="1023" height="1023" x="-111.5" y="-111.5" transform="rotate(62, 400, 400)" opacity="0.29"></rect><rect width="990" height="990" x="-95" y="-95" transform="rotate(60, 400, 400)" opacity="0.31"></rect><rect width="957" height="957" x="-78.5" y="-78.5" transform="rotate(58, 400, 400)" opacity="0.33"></rect><rect width="924" height="924" x="-62" y="-62" transform="rotate(56, 400, 400)" opacity="0.36"></rect><rect width="891" height="891" x="-45.5" y="-45.5" transform="rotate(54, 400, 400)" opacity="0.38"></rect><rect width="858" height="858" x="-29" y="-29" transform="rotate(52, 400, 400)" opacity="0.41"></rect><rect width="825" height="825" x="-12.5" y="-12.5" transform="rotate(50, 400, 400)" opacity="0.43"></rect><rect width="792" height="792" x="4" y="4" transform="rotate(48, 400, 400)" opacity="0.45"></rect><rect width="759" height="759" x="20.5" y="20.5" transform="rotate(46, 400, 400)" opacity="0.48"></rect><rect width="726" height="726" x="37" y="37" transform="rotate(44, 400, 400)" opacity="0.50"></rect><rect width="693" height="693" x="53.5" y="53.5" transform="rotate(42, 400, 400)" opacity="0.53"></rect><rect width="660" height="660" x="70" y="70" transform="rotate(40, 400, 400)" opacity="0.55"></rect><rect width="627" height="627" x="86.5" y="86.5" transform="rotate(38, 400, 400)" opacity="0.57"></rect><rect width="594" height="594" x="103" y="103" transform="rotate(36, 400, 400)" opacity="0.60"></rect><rect width="561" height="561" x="119.5" y="119.5" transform="rotate(34, 400, 400)" opacity="0.62"></rect><rect width="528" height="528" x="136" y="136" transform="rotate(32, 400, 400)" opacity="0.64"></rect><rect width="495" height="495" x="152.5" y="152.5" transform="rotate(30, 400, 400)" opacity="0.67"></rect><rect width="462" height="462" x="169" y="169" transform="rotate(28, 400, 400)" opacity="0.69"></rect><rect width="429" height="429" x="185.5" y="185.5" transform="rotate(26, 400, 400)" opacity="0.71"></rect><rect width="396" height="396" x="202" y="202" transform="rotate(24, 400, 400)" opacity="0.74"></rect><rect width="363" height="363" x="218.5" y="218.5" transform="rotate(22, 400, 400)" opacity="0.76"></rect><rect width="330" height="330" x="235" y="235" transform="rotate(20, 400, 400)" opacity="0.79"></rect><rect width="297" height="297" x="251.5" y="251.5" transform="rotate(18, 400, 400)" opacity="0.81"></rect><rect width="264" height="264" x="268" y="268" transform="rotate(16, 400, 400)" opacity="0.83"></rect><rect width="231" height="231" x="284.5" y="284.5" transform="rotate(14, 400, 400)" opacity="0.86"></rect><rect width="198" height="198" x="301" y="301" transform="rotate(12, 400, 400)" opacity="0.88"></rect><rect width="165" height="165" x="317.5" y="317.5" transform="rotate(10, 400, 400)" opacity="0.91"></rect><rect width="132" height="132" x="334" y="334" transform="rotate(8, 400, 400)" opacity="0.93"></rect><rect width="99" height="99" x="350.5" y="350.5" transform="rotate(6, 400, 400)" opacity="0.95"></rect><rect width="66" height="66" x="367" y="367" transform="rotate(4, 400, 400)" opacity="0.98"></rect><rect width="33" height="33" x="383.5" y="383.5" transform="rotate(2, 400, 400)" opacity="1.00"></rect></g></svg>