<svg xmlns="http://www.w3.org/2000/svg" version="1.1" xmlns:xlink="http://www.w3.org/1999/xlink" xmlns:svgjs="http://svgjs.dev/svgjs" viewBox="0 0 800 800"><defs><linearGradient x1="50%" y1="0%" x2="50%" y2="100%" id="ccchaos-grad"><stop stop-color="hsl(162, 100%, 58%)" stop-opacity="1" offset="0%"></stop><stop stop-color="hsl(270, 73%, 53%)" stop-opacity="1" offset="100%"></stop></linearGradient></defs><g stroke-width="2" stroke="url(#ccchaos-grad)" fill="none" stroke-linecap="round"><path d="M423.24 109.32C433.66 112.43 444.29 116.09 455.06 120.12 465.84 123.95 476.72 127.88 487.61 131.81 498.4 135.21 509.06 138.49 519.42 141.6 529.46 144.1 538.94 146.46 547.63 148.72 559.18 151.4 574.7 156.92 578.01 160.29 578.69 164.12 574.42 174.91 571.89 182.07 571.75 187.37 573.02 193.33 576.33 199.9 582.44 206.78 591.25 214.24 602.88 222.19 617.16 230.41 633.5 239.06 651.1 248.06 668.9 257.26 685.74 266.74 700.23 276.43 711.43 286.24 718.17 296.21 719.73 306.26 716.54 316.38 708.46 326.56 696.37 336.72 682.43 346.92 667.65 357.08 653.96 367.16 643.81 377.25 638 387.24 637.51 397.07 642.99 406.89 653.14 416.32 666.46 425.31 681.84 434.29 696.66 442.84 709.06 450.93 718.23 459.01 722.41 466.63 721.21 473.82 715.14 481.01 704.31 487.79 689.85 494.18 673.06 500.64 655.16 506.8 637.49 512.7 621.15 518.8 607.01 524.78 595.58 530.71 587.29 537.02 581.93 543.46 579.13 550.11 578.88 557.32 580.14 564.89 582.19 572.89 585.11 581.55 587.63 590.69 589.24 600.31 590.32 610.5 589.85 621.04 587.72 631.79 584.5 642.77 579.6 653.64 573.2 664.16 565.83 674.3 557.26 683.61 547.77 691.8 537.7 698.95 527.05 704.55 516.06 708.37 504.83 710.73 493.5 711.15 482.24 709.6 470.92 706.72 459.77 702.14 448.89 696.1 438.02 689.49 427.42 682.09 417.14 674.29 406.86 667.07 397.1 660.38 387.81 654.53 378.47 650.12 369.54 646.85 360.95 644.77 352.22 644.27 343.72 644.78 335.4 646.09 326.81 648.5 318.27 651.22 309.68 653.96 300.72 657.02 291.61 659.55 282.29 661.34 272.56 662.74 262.59 663.02 252.41 662.08 241.96 660.36 231.42 657.31 220.92 652.98 210.51 647.8 200.42 641.44 190.87 634.04 181.87 625.97 173.73 617.06 166.63 607.49 160.41 597.52 155.37 587.08 151.54 576.35 148.46 565.44 146.36 554.39 145.09 543.29 143.94 532.19 143.1 521.12 142.32 510.15 140.88 499.25 139.05 488.46 136.72 477.84 133.39 467.28 129.56 456.86 125.38 446.59 120.67 436.37 116.13 426.28 112.12 416.33 108.54 406.41 106.12 396.59 105.11 386.91 105.2 377.23 106.82 367.91 109.79 358.93 113.47 349.95 117.96 341.33 122.93 333.07 127.63 324.8 132.2 316.9 136.41 309.37 139.69 301.82 142.41 294.64 144.63 287.84 146 280.98 147.19 274.46 148.42 268.27 149.48 261.98 151.11 255.95 153.52 250.17 156.48 244.19 160.55 238.37 165.77 232.68 171.86 226.69 179.09 220.73 187.32 214.76 196.24 208.42 205.91 202.01 216.11 195.53 226.59 188.65 237.31 181.69 248.1 174.69 258.8 167.38 269.39 160.11 279.81 152.98 289.93 145.75 299.85 138.82 309.59 132.33 319.01 126.04 328.33 120.4 337.61 115.53 346.64 111.16 355.75 107.73 365 105.35 374.12 103.62 383.49 102.97 393.17 103.42 402.79 104.44 412.8 106.43 423.23 109.31" stroke-dasharray="7 2" transform="rotate(0, 400, 400)" opacity="0.21"></path><path d="M428.11 120.18C438.24 123.26 448.38 126.87 458.48 130.84 468.55 134.63 478.51 138.55 488.26 142.48 497.87 145.94 507.12 149.29 515.85 152.49 524.24 155.11 531.9 157.6 538.64 159.99 552.56 165.63 559.38 175.16 557.96 179.62 557.14 184.82 561.32 198.54 569.08 207.08 577.52 213.25 588.37 219.96 601.52 227.18 616.62 234.64 633.06 242.54 649.99 250.82 666.46 259.28 681.39 268.06 693.64 277.07 702.5 286.21 707.06 295.53 706.82 304.97 702.39 314.49 693.73 324.09 681.72 333.7 668.39 343.35 654.59 352.99 642.01 362.56 632.81 372.15 627.62 381.65 627.27 391.01 632.36 400.38 641.7 409.37 654.01 417.97 668.4 426.57 682.51 434.77 694.7 442.57 704.26 450.37 709.48 457.78 709.89 464.82 705.85 471.89 697.26 478.63 684.94 485.08 670.02 491.62 653.44 497.95 636.42 504.12 619.98 510.52 604.98 516.87 592.06 523.26 581.69 530.03 573.93 536.96 568.62 544.14 565.84 551.83 564.85 559.87 565.07 568.29 566.59 577.28 568.31 586.66 569.7 596.39 571.11 606.56 571.49 616.94 570.63 627.39 569.08 637.92 566.08 648.21 561.69 658.03 556.5 667.38 550.07 675.86 542.59 683.19 534.54 689.5 525.71 694.31 516.31 697.44 506.6 699.24 496.56 699.25 486.35 697.46 476.03 694.49 465.67 689.99 455.37 684.17 445.06 677.86 434.85 670.83 424.79 663.42 414.73 656.55 405.03 650.13 395.67 644.43 386.26 640.03 377.13 636.64 368.21 634.31 359.16 633.43 350.23 633.48 341.37 634.3 332.28 636.18 323.14 638.41 313.91 640.75 304.38 643.48 294.69 645.84 284.81 647.61 274.67 649.15 264.37 649.75 253.98 649.3 243.52 648.22 233.12 645.95 222.95 642.51 213.05 638.33 203.64 633.03 194.93 626.71 186.88 619.75 179.76 611.94 173.73 603.41 168.55 594.45 164.48 584.97 161.53 575.09 159.18 564.99 157.65 554.65 156.77 544.18 155.84 533.64 155.06 523.07 154.21 512.53 152.6 502 150.54 491.55 147.95 481.22 144.36 470.92 140.31 460.76 135.94 450.73 131.1 440.75 126.48 430.9 122.42 421.2 118.82 411.52 116.38 401.98 115.35 392.59 115.42 383.2 117.01 374.18 119.95 365.53 123.63 356.86 128.15 348.55 133.19 340.61 138.04 332.65 142.8 325.04 147.25 317.78 150.81 310.49 153.83 303.54 156.3 296.92 157.87 290.23 159.15 283.83 160.34 277.71 161.19 271.46 162.43 265.43 164.27 259.58 166.48 253.52 169.66 247.58 173.88 241.72 178.88 235.56 184.99 229.4 192.13 223.23 200.02 216.71 208.76 210.12 218.17 203.47 228.03 196.47 238.3 189.43 248.81 182.39 259.41 175.11 270.06 167.92 280.64 160.91 291.09 153.86 301.41 147.17 311.57 140.93 321.52 134.94 331.33 129.6 341.05 125.04 350.59 120.98 360.1 117.83 369.66 115.69 379.1 114.16 388.66 113.67 398.38 114.23 408.06 115.31 417.96 117.32 428.1 120.18" stroke-dasharray="1 8" transform="rotate(4.04, 400, 400)" opacity="0.58"></path><path d="M428.69 131.05C438.44 134.09 447.99 137.63 457.3 141.54 466.57 145.29 475.54 149.18 484.09 153.1 492.5 156.6 500.37 160.01 507.57 163.29 517.5 167.35 532.18 174.2 536.58 177.26 540.13 183.17 542.43 195.12 545.76 200.82 550.17 204.98 556.31 209.7 564.46 214.95 574.8 220.44 587.13 226.46 601.2 232.97 616.53 239.69 632.52 246.86 648.34 254.4 663.15 262.12 676.02 270.18 685.99 278.49 692.63 286.93 695.18 295.59 693.37 304.39 687.95 313.27 678.9 322.25 667.12 331.29 654.47 340.36 641.66 349.46 630.16 358.51 621.87 367.59 617.26 376.6 617.04 385.52 621.74 394.43 630.32 403.03 641.66 411.28 655.05 419.52 668.42 427.44 680.29 435.01 690.07 442.6 696.13 449.87 697.94 456.84 695.76 463.86 689.29 470.63 679.13 477.19 666.22 483.87 651.25 490.42 635.29 496.89 619.25 503.59 603.95 510.32 590.1 517.14 578.16 524.31 568.41 531.68 560.86 539.3 555.64 547.36 552.3 555.75 550.42 564.46 550.1 573.62 550.43 583.08 550.93 592.79 551.91 602.79 552.37 612.88 552.03 622.91 551.39 632.89 549.64 642.52 546.71 651.59 543.22 660.14 538.57 667.77 532.86 674.25 526.64 679.76 519.55 683.83 511.73 686.33 503.6 687.62 494.94 687.26 485.9 685.27 476.72 682.25 467.29 677.85 457.71 672.25 448.1 666.25 438.4 659.58 428.66 652.56 418.92 646.02 409.35 639.87 399.97 634.34 390.55 629.97 381.25 626.49 372.04 623.95 362.74 622.73 353.45 622.35 344.13 622.7 334.65 624.07 325.07 625.82 315.37 627.73 305.48 630.1 295.45 632.22 285.31 633.89 275.05 635.47 264.75 636.26 254.49 636.18 244.34 635.61 234.41 633.99 224.88 631.33 215.76 628.03 207.28 623.69 199.59 618.38 192.61 612.47 186.61 605.72 181.68 598.24 177.51 590.31 174.36 581.81 172.19 572.86 170.45 563.64 169.36 554.11 168.74 544.37 167.91 534.51 167.09 524.54 166.07 514.54 164.24 504.51 161.9 494.51 159.01 484.57 155.18 474.65 150.9 464.82 146.37 455.12 141.43 445.44 136.76 435.88 132.66 426.47 129.07 417.08 126.63 407.82 125.59 398.73 125.64 389.63 127.19 380.9 130.08 372.53 133.73 364.14 138.24 356.11 143.32 348.42 148.28 340.71 153.22 333.33 157.89 326.28 161.75 319.18 165.08 312.38 167.85 305.87 169.7 299.27 171.17 292.92 172.42 286.8 173.21 280.53 174.21 274.44 175.61 268.49 177.21 262.31 179.61 256.22 182.9 250.18 186.84 243.85 191.83 237.51 197.82 231.15 204.55 224.47 212.19 217.74 220.6 210.97 229.56 203.91 239.07 196.84 248.96 189.82 259.12 182.61 269.47 175.55 279.89 168.71 290.33 161.9 300.72 155.46 311.02 149.52 321.23 143.85 331.32 138.83 341.29 134.59 351.14 130.83 360.92 127.97 370.64 126.06 380.29 124.74 389.94 124.4 399.6 125.06 409.24 126.2 418.94 128.22 428.68 131.04" stroke-dasharray="2 11" transform="rotate(8.08, 400, 400)" opacity="0.08"></path><path d="M424.9 141.91C434.16 144.9 443.06 148.38 451.56 152.21 460.02 155.91 468 159.76 475.44 163.67 482.75 167.19 489.41 170.65 495.33 174 509.24 181.85 520.99 191.49 522.46 194.61 524.26 197.76 530.81 205.78 537.4 210.91 543.96 214.61 552.17 218.81 562.15 223.51 573.87 228.38 587.1 233.76 601.48 239.6 616.49 245.62 631.56 252.08 645.9 258.92 658.83 265.92 669.54 273.26 677.27 280.87 681.81 288.61 682.57 296.59 679.44 304.74 673.24 312.96 664 321.33 652.57 329.78 640.67 338.26 628.85 346.8 618.4 355.34 610.97 363.9 606.91 372.44 606.8 380.92 611.14 389.41 618.99 397.63 629.39 405.56 641.8 413.5 654.38 421.17 665.84 428.57 675.69 435.98 682.4 443.16 685.4 450.11 684.88 457.13 680.4 463.97 672.35 470.68 661.52 477.52 648.37 484.3 633.79 491.06 618.61 498.05 603.55 505.12 589.31 512.31 576.37 519.82 565.12 527.53 555.71 535.47 548.33 543.8 542.74 552.39 538.7 561.24 536.3 570.43 534.85 579.83 533.98 589.37 533.89 599.07 533.74 608.75 533.22 618.25 532.77 627.61 531.56 636.53 529.47 644.81 527.08 652.54 523.69 659.33 519.33 665 514.6 669.73 508.98 673.12 502.57 675.04 495.89 675.87 488.55 675.2 480.66 673.04 472.64 670 464.2 665.71 455.41 660.34 446.58 654.64 437.49 648.34 428.16 641.69 418.83 635.49 409.51 629.6 400.2 624.25 390.88 619.93 381.55 616.38 372.18 613.66 362.77 612.14 353.28 611.39 343.7 611.3 334.04 612.18 324.25 613.44 314.36 614.92 304.4 616.89 294.36 618.72 284.28 620.23 274.24 621.75 264.28 622.64 254.5 622.8 244.98 622.61 235.83 621.52 227.19 619.5 219.08 616.95 211.69 613.46 205.15 609.06 199.32 604.14 194.44 598.39 190.57 591.9 187.34 585 185.01 577.49 183.49 569.48 182.23 561.19 181.44 552.53 180.94 543.59 180.09 534.5 179.12 525.23 177.86 515.86 175.74 506.44 173.09 496.97 169.89 487.52 165.81 478.07 161.34 468.66 156.66 459.35 151.65 450.04 146.95 440.84 142.86 431.76 139.3 422.69 136.88 413.74 135.83 404.94 135.85 396.15 137.35 387.69 140.17 379.58 143.76 371.46 148.24 363.66 153.31 356.18 158.35 348.68 163.44 341.47 168.32 334.56 172.46 327.59 176.12 320.88 179.23 314.43 181.42 307.87 183.16 301.52 184.59 295.35 185.44 289.03 186.34 282.84 187.48 276.76 188.63 270.46 190.38 264.21 192.88 258 195.86 251.51 199.78 245.02 204.63 238.5 210.16 231.71 216.6 224.88 223.85 218.05 231.7 210.98 240.2 203.94 249.21 196.99 258.6 189.92 268.31 183.04 278.22 176.42 288.28 169.88 298.42 163.74 308.53 158.11 318.67 152.78 328.73 148.1 338.68 144.18 348.6 140.73 358.41 138.15 368.1 136.48 377.76 135.35 387.33 135.16 396.8 135.9 406.26 137.1 415.64 139.12 424.89 141.91" stroke-dasharray="0 6" transform="rotate(12.12, 400, 400)" opacity="0.93"></path><path d="M417.32 152.78C426.02 155.71 434.26 159.11 441.98 162.86 449.67 166.5 456.79 170.3 463.3 174.18 469.7 177.71 475.43 181.2 480.44 184.62 492.4 192.81 503.99 202.96 506.77 206.13 510.55 209.21 522.57 216.73 532.22 221.4 540.6 224.71 550.44 228.48 561.71 232.69 574.23 237.03 587.76 241.83 601.88 247.06 616.08 252.44 629.83 258.24 642.41 264.42 653.33 270.73 661.87 277.38 667.46 284.33 670.1 291.38 669.31 298.69 665.09 306.2 658.34 313.77 649.09 321.52 638.12 329.39 627.01 337.29 616.19 345.28 606.75 353.32 600.13 361.37 596.57 369.44 596.56 377.52 600.56 385.59 607.71 393.46 617.22 401.11 628.66 408.77 640.43 416.23 651.39 423.48 661.17 430.77 668.33 437.88 672.31 444.84 673.25 451.87 670.58 458.8 664.55 465.66 655.8 472.65 644.59 479.64 631.65 486.66 617.7 493.89 603.35 501.23 589.25 508.7 575.89 516.45 563.69 524.39 552.91 532.54 543.76 540.98 536.21 549.64 530.15 558.49 525.64 567.57 522.26 576.77 519.7 586 518.12 595.29 516.84 604.45 515.56 613.34 514.64 622.01 513.32 630.17 511.43 637.65 508.13 647.54 497.29 660.8 489.71 663.57 484.2 663.99 477.99 663.05 471.14 660.78 464.17 657.74 456.66 653.58 448.67 648.45 440.64 643.06 432.19 637.1 423.37 630.83 414.54 624.95 405.57 619.34 396.49 614.17 387.41 609.92 378.2 606.33 368.88 603.47 359.55 601.68 350.1 600.58 340.53 600.09 330.95 600.5 321.27 601.31 311.52 602.34 301.8 603.91 292.08 605.41 282.43 606.69 272.95 608.07 263.65 608.96 254.67 609.26 246.05 609.33 237.9 608.63 230.38 607.12 223.41 605.21 217.2 602.44 211.86 598.84 207.16 594.8 203.35 589.96 200.45 584.42 198.04 578.49 196.38 571.95 195.36 564.87 194.41 557.52 193.77 549.75 193.26 541.65 192.28 533.38 191.07 524.88 189.49 516.21 187.04 507.46 184.07 498.61 180.57 489.73 176.25 480.82 171.6 471.91 166.81 463.04 161.77 454.17 157.07 445.37 153.01 436.66 149.5 427.95 147.12 419.34 146.07 410.85 146.07 402.36 147.5 394.18 150.23 386.32 153.74 378.44 158.15 370.85 163.19 363.55 168.27 356.22 173.45 349.15 178.51 342.34 182.92 335.46 186.9 328.81 190.36 322.36 192.93 315.81 195.02 309.42 196.72 303.19 197.76 296.79 198.71 290.5 199.74 284.28 200.62 277.87 201.91 271.48 203.78 265.11 205.95 258.51 208.92 251.9 212.71 245.28 217.07 238.42 222.3 231.56 228.34 224.72 234.96 217.71 242.29 210.76 250.2 203.94 258.55 197.07 267.34 190.41 276.43 184.06 285.79 177.82 295.32 172.01 304.92 166.72 314.64 161.74 324.35 157.41 333.99 153.82 343.67 150.69 353.25 148.37 362.68 146.93 372.13 146 381.43 145.95 390.54 146.77 399.67 148.01 408.61 150.03 417.31 152.77" stroke-dasharray="2 9" transform="rotate(16.16, 400, 400)" opacity="0.12"></path><path d="M407.1 163.64C415.21 166.51 422.8 169.83 429.85 173.49 436.86 177.05 443.3 180.79 449.12 184.63 457.45 189.91 470.91 199.65 476.14 204 480.98 207.65 489.6 214.34 494.25 217.6 498.13 219.6 502.54 221.79 507.73 224.22 514.03 226.56 521.38 229.22 529.91 232.22 539.68 235.23 550.62 238.64 562.59 242.44 575.33 246.33 588.6 250.63 601.95 255.33 614.94 260.14 627.06 265.34 637.71 270.91 646.56 276.58 653 282.6 656.6 288.91 657.55 295.32 655.44 301.99 650.39 308.88 643.29 315.84 634.18 322.99 623.77 330.29 613.49 337.62 603.65 345.08 595.18 352.63 589.33 360.19 586.25 367.82 586.32 375.5 589.99 383.18 596.49 390.73 605.13 398.12 615.63 405.52 626.56 412.79 636.96 419.92 646.55 427.08 653.98 434.15 658.73 441.12 660.9 448.16 659.85 455.17 655.7 462.15 648.98 469.26 639.76 476.41 628.63 483.62 616.2 491.02 602.95 498.53 589.48 506.18 576.23 514.06 563.65 522.11 552.04 530.32 541.63 538.75 532.52 547.34 524.72 556.03 518.3 564.87 513.03 573.74 508.69 582.54 505.4 591.32 502.66 599.88 500.21 608.09 498.31 616.02 496.33 623.4 494.09 630.07 490.71 638.77 481.07 649.93 474.53 651.94 469.82 652.01 464.44 650.84 458.42 648.49 452.31 645.47 445.61 641.45 438.36 636.58 431.07 631.48 423.28 625.88 415.02 619.96 406.76 614.41 398.24 609.07 389.53 604.09 380.84 599.93 371.95 596.33 362.91 593.35 353.9 591.34 344.74 589.93 335.48 589.07 326.27 589.05 317 589.41 307.73 590.02 298.58 591.16 289.5 592.31 280.6 593.31 271.95 594.49 263.6 595.3 255.66 595.64 248.13 595.85 241.15 595.42 234.84 594.31 226.57 591.8 214.81 582.51 211.31 575.82 209.56 570.79 208.39 565.15 207.69 558.98 206.89 552.54 206.25 545.66 205.6 538.41 204.38 530.98 202.86 523.27 200.91 515.34 198.12 507.32 194.8 499.14 191.01 490.88 186.48 482.57 181.69 474.21 176.82 465.84 171.78 457.47 167.13 449.11 163.12 440.81 159.69 432.5 157.35 424.25 156.31 416.09 156.28 407.92 157.64 400.02 160.27 392.39 163.67 384.75 167.98 377.36 172.94 370.22 178.01 363.04 183.26 356.09 188.46 349.35 193.11 342.54 197.39 335.92 201.2 329.47 204.17 322.91 206.65 316.48 208.71 310.17 210.05 303.71 211.19 297.32 212.27 290.99 213.05 284.48 214.08 277.99 215.5 271.51 217.06 264.84 219.25 258.16 222.13 251.49 225.44 244.64 229.53 237.81 234.38 231.03 239.74 224.14 245.82 217.35 252.52 210.72 259.68 204.08 267.34 197.7 275.39 191.65 283.77 185.76 292.41 180.3 301.21 175.37 310.21 170.76 319.27 166.79 328.32 163.53 337.47 160.7 346.54 158.66 355.49 157.44 364.48 156.69 373.31 156.76 381.93 157.66 390.57 158.93 398.98 160.94 407.09 163.64" stroke-dasharray="11 5" transform="rotate(20.200000000000003, 400, 400)" opacity="0.68"></path><path d="M395.79 174.51C403.31 177.3 410.33 180.53 416.84 184.09 423.32 187.58 429.27 191.24 434.69 195.02 442.53 200.29 455.78 210.16 461.45 214.66 467.12 218.51 478.75 225.58 485.52 228.98 490.89 231.04 496.92 233.25 503.74 235.64 511.54 237.92 520.28 240.45 530.01 243.27 540.63 246.07 552.08 249.2 564.16 252.67 576.58 256.18 589.08 260.07 601.25 264.31 612.7 268.63 623 273.32 631.65 278.35 640.69 286.17 642.65 303.48 635.41 312.84 628.16 319.21 619.33 325.8 609.57 332.57 600.14 339.36 591.26 346.31 583.71 353.4 578.59 360.49 575.93 367.7 576.08 375.01 579.44 382.32 585.32 389.56 593.14 396.7 602.72 403.86 612.81 410.94 622.59 417.95 631.86 425 639.41 432 644.72 438.96 647.9 445.99 648.25 453.03 645.8 460.09 641 467.26 633.75 474.5 624.51 481.82 613.81 489.29 601.97 496.88 589.53 504.59 576.89 512.48 564.45 520.5 552.57 528.64 541.44 536.92 531.27 545.3 522.17 553.71 514.18 562.18 507.24 570.6 501.24 578.88 496.24 587.05 491.91 594.95 488.08 602.44 484.9 609.61 481.89 616.2 478.88 622.07 474.69 629.61 464.82 638.83 458.69 640.15 454.4 639.92 449.53 638.58 444.08 636.17 438.57 633.2 432.5 629.34 425.88 624.72 419.23 619.92 412.05 614.66 404.38 609.1 396.7 603.87 388.74 598.79 380.54 594.02 372.37 589.95 363.99 586.37 355.45 583.31 346.96 581.11 338.35 579.43 329.68 578.25 321.11 577.84 312.53 577.78 304.03 577.97 295.7 578.69 287.54 579.46 279.64 580.16 272.04 581.09 264.81 581.75 258.06 582.04 248.85 582.16 234.36 579.28 229.27 576.07 225.5 571.77 221.32 559.55 220.33 551.81 219.53 546.24 218.74 540.21 217.84 533.79 216.3 527.19 214.4 520.28 212.06 513.11 208.9 505.83 205.27 498.35 201.21 490.74 196.5 483.07 191.61 475.3 186.7 467.47 181.7 459.63 177.11 451.75 173.19 443.88 169.85 436.01 167.58 428.15 166.54 420.32 166.5 412.49 167.78 404.88 170.28 397.5 173.55 390.1 177.73 382.9 182.58 375.91 187.6 368.88 192.87 362.04 198.15 355.37 203 348.63 207.55 342.04 211.69 335.58 215.07 329.03 217.97 322.57 220.43 316.19 222.15 309.69 223.6 303.24 224.88 296.83 225.74 290.27 226.7 283.72 227.89 277.19 229.04 270.51 230.66 263.83 232.83 257.18 235.26 250.4 238.36 243.67 242.13 237.02 246.32 230.31 251.18 223.73 256.66 217.35 262.56 211.01 269 204.95 275.88 199.24 283.1 193.71 290.65 188.63 298.46 184.08 306.48 179.85 314.66 176.23 322.89 173.3 331.25 170.78 339.61 168.99 347.87 167.99 356.21 167.41 364.41 167.61 372.42 168.57 380.46 169.87 388.27 171.87 395.78 174.5" stroke-dasharray="2 4" transform="rotate(24.24, 400, 400)" opacity="0.33"></path><path d="M385.13 185.37C392.08 188.09 398.62 191.22 404.73 194.67 410.84 198.07 416.51 201.65 421.78 205.35 429.52 210.58 443.49 220.55 450.05 225.17 456.91 229.2 471.93 236.65 480.75 240.21 487.46 242.35 494.84 244.62 502.95 247.03 511.83 249.29 521.47 251.76 531.83 254.47 542.75 257.11 554.15 260.04 565.8 263.27 577.41 266.49 588.73 270.05 599.4 273.92 609.11 277.83 617.49 282.08 624.14 286.65 630.34 293.73 628.25 309.47 620.22 318.05 613 323.89 604.58 329.95 595.51 336.23 586.95 342.52 579.01 349 572.34 355.65 567.88 362.31 565.63 369.12 565.84 376.07 568.91 383.03 574.19 389.97 581.23 396.87 589.92 403.78 599.17 410.68 608.29 417.55 617.15 424.46 624.66 431.37 630.34 438.28 634.3 445.26 635.83 452.28 634.89 459.35 631.83 466.51 626.48 473.75 619.13 481.07 610.26 488.52 600.06 496.07 588.96 503.71 577.35 511.48 565.54 519.35 553.9 527.28 542.61 535.29 531.93 543.33 522.01 551.33 512.91 559.33 504.68 567.21 497.29 574.89 490.77 582.4 484.95 589.59 479.72 596.32 475.15 602.72 470.92 608.52 466.9 613.62 461.43 620.06 450.2 627.49 443.96 628.23 437.37 626.99 421.9 619.09 412.94 612.87 406.79 608.37 400.16 603.44 393.07 598.23 385.98 593.31 378.61 588.51 371.03 583.95 363.48 580 355.75 576.45 347.9 573.34 340.12 570.98 332.26 569.08 324.4 567.61 316.67 566.84 309 566.4 301.48 566.2 294.17 566.51 287.09 566.9 280.34 567.27 270.88 568.14 254.93 568.64 248.72 567.85 240.48 563.32 234.09 550.05 233.11 543.43 232.16 538.65 231.11 533.41 229.85 527.77 227.93 521.97 225.62 515.83 222.88 509.39 219.37 502.86 215.44 496.09 211.14 489.13 206.31 482.12 201.35 474.96 196.44 467.69 191.51 460.41 187.03 453.04 183.23 445.63 179.99 438.21 177.79 430.76 176.78 423.29 176.71 415.82 177.91 408.52 180.27 401.38 183.39 394.24 187.41 387.25 192.11 380.41 197.05 373.55 202.28 366.83 207.6 360.23 212.59 353.58 217.36 347.04 221.8 340.59 225.56 334.06 228.89 327.6 231.78 321.2 233.95 314.7 235.79 308.23 237.39 301.8 238.49 295.24 239.56 288.7 240.71 282.19 241.69 275.56 242.98 268.95 244.65 262.4 246.44 255.76 248.76 249.19 251.64 242.74 254.8 236.27 258.58 229.97 262.93 223.89 267.61 217.89 272.84 212.19 278.53 206.86 284.53 201.72 290.92 197.03 297.61 192.87 304.53 189.01 311.67 185.75 318.94 183.15 326.35 180.92 333.83 179.39 341.29 178.59 348.82 178.18 356.29 178.48 363.62 179.5 370.98 180.83 378.16 182.8 385.12 185.37" stroke-dasharray="10 3" transform="rotate(28.28, 400, 400)" opacity="0.21"></path><path d="M376.73 196.24C383.18 198.87 389.34 201.9 395.19 205.23 401.05 208.52 406.62 212.01 411.94 215.62 417.3 219.05 422.45 222.52 427.45 226 432.59 229.2 437.67 232.37 442.79 235.5 448.18 238.3 453.74 241.08 459.57 243.83 465.84 246.28 472.53 248.74 479.71 251.23 487.45 253.49 495.78 255.83 504.71 258.29 514.17 260.58 524.17 263.04 534.6 265.69 545.28 268.25 556.11 271.05 566.86 274.1 577.27 277.12 587.12 280.42 596.07 284 607.18 289.54 618.79 302.13 618.32 309.17 615.67 313.98 611.12 319.07 604.91 324.41 597.87 329.77 589.95 335.37 581.64 341.2 573.94 347.03 566.91 353.08 561.06 359.33 557.22 365.57 555.33 372.01 555.6 378.62 558.39 385.24 563.13 391.88 569.42 398.54 577.25 405.2 585.66 411.89 594.08 418.6 602.46 425.34 609.79 432.12 615.66 438.93 620.19 445.8 622.67 452.73 623 459.72 621.51 466.79 617.9 473.93 612.38 481.16 605.37 488.46 596.92 495.86 587.38 503.31 577.11 510.85 566.34 518.43 555.39 526.03 544.47 533.66 533.81 541.25 523.6 548.75 513.91 556.19 504.86 563.46 496.49 570.46 488.79 577.27 481.75 583.72 475.29 589.69 469.43 595.32 464 600.36 458.89 604.72 451.92 610.13 438.66 615.94 431.89 616.17 425.04 614.68 409.83 606.91 401.34 601.05 395.54 596.84 389.37 592.24 382.82 587.37 376.26 582.76 369.51 578.22 362.61 573.88 355.73 570.06 348.75 566.57 341.7 563.44 334.73 560.97 327.75 558.88 320.85 557.17 314.07 556.08 307.43 555.28 301.01 554.72 291.82 554.65 275.58 555.13 268.81 555.22 254.29 551.2 247.05 539.6 245.84 533.96 243.9 527.6 237.82 512.64 233.32 504.21 229.49 498.39 225.3 492.3 220.81 485.99 215.89 479.63 210.92 473.08 206.06 466.38 201.24 459.66 196.9 452.81 193.23 445.87 190.12 438.93 188.01 431.9 187.02 424.81 186.92 417.72 188.03 410.74 190.25 403.87 193.2 397 197.02 390.24 201.55 383.58 206.34 376.91 211.49 370.32 216.8 363.83 221.87 357.3 226.81 350.83 231.49 344.44 235.6 337.98 239.32 331.56 242.65 325.19 245.3 318.74 247.59 312.32 249.6 305.92 251.06 299.44 252.4 292.98 253.7 286.55 254.72 280.05 255.89 273.59 257.32 267.21 258.71 260.78 260.49 254.45 262.72 248.26 265.09 242.1 267.98 236.12 271.37 230.39 275 224.77 279.13 219.46 283.73 214.53 288.56 209.8 293.81 205.52 299.4 201.75 305.18 198.27 311.24 195.37 317.51 193.08 323.9 191.15 330.43 189.86 337.03 189.25 343.71 188.99 350.39 189.39 357.03 190.45 363.69 191.8 370.27 193.73 376.72 196.23" stroke-dasharray="10 7" transform="rotate(32.32, 400, 400)" opacity="0.96"></path><path d="M371.87 207.1C377.89 209.65 383.75 212.56 389.46 215.77 395.17 218.95 400.76 222.33 406.24 225.84 411.77 229.19 417.26 232.62 422.75 236.07 428.39 239.27 434.11 242.47 439.99 245.65 446.13 248.54 452.53 251.41 459.25 254.26 466.34 256.83 473.84 259.41 481.79 262.02 490.13 264.39 498.94 266.83 508.17 269.36 517.68 271.71 527.5 274.2 537.49 276.84 547.45 279.37 557.29 282.1 566.77 285.04 575.72 287.92 583.9 291.04 591.04 294.41 599.4 299.56 606.13 311.21 603.96 317.7 600.61 322.13 595.73 326.82 589.53 331.76 582.81 336.7 575.48 341.89 567.95 347.32 561.11 352.75 554.94 358.4 549.87 364.27 546.61 370.14 545.05 376.22 545.37 382.5 547.89 388.79 552.1 395.13 557.7 401.53 564.71 407.93 572.3 414.39 580 420.9 587.81 427.43 594.85 434.02 600.75 440.67 605.64 447.36 608.84 454.13 610.22 460.95 610.06 467.83 608.01 474.78 604.2 481.8 598.99 488.86 592.32 495.98 584.47 503.14 575.75 510.32 566.31 517.52 556.44 524.68 546.32 531.82 536.17 538.88 526.18 545.8 516.43 552.61 507.07 559.21 498.19 565.51 489.77 571.59 481.88 577.29 474.5 582.51 467.61 587.39 461.16 591.7 455.09 595.36 446.68 599.82 431.17 604.2 423.68 603.99 416.3 602.3 400.86 594.75 392.63 589.24 387.07 585.32 381.25 581.04 375.18 576.5 369.11 572.2 362.95 567.93 356.73 563.81 350.53 560.14 344.3 556.72 338.11 553.6 331.98 551.05 325.93 548.82 320.02 546.9 311.43 544.99 295.73 542.93 288.88 542.46 272.3 541.09 262.89 535.66 261.56 532.33 259.97 528.37 255.79 518.08 252.74 511.84 249.97 507.43 246.84 502.67 243.33 497.6 239.23 492.44 234.83 487 230.22 481.31 225.26 475.58 220.33 469.62 215.56 463.49 210.89 457.32 206.71 451 203.19 444.54 200.23 438.07 198.21 431.48 197.26 424.79 197.14 418.09 198.15 411.45 200.21 404.88 202.97 398.31 206.59 391.8 210.89 385.35 215.51 378.89 220.52 372.49 225.75 366.14 230.84 359.76 235.88 353.43 240.75 347.14 245.14 340.8 249.22 334.49 252.95 328.21 256.07 321.88 258.85 315.56 261.32 309.28 263.23 302.94 264.96 296.64 266.56 290.38 267.8 284.08 269.09 277.84 270.49 271.7 271.74 265.55 273.25 259.52 275.08 253.66 276.93 247.85 279.19 242.25 281.85 236.91 286.28 229.25 297.51 216.06 304.21 210.74 311.48 206.37 327.53 200.92 336.1 199.96 341.92 199.84 347.85 200.33 353.83 201.43 359.83 202.78 365.85 204.68 371.86 207.1" stroke-dasharray="2 3" transform="rotate(36.36, 400, 400)" opacity="0.48"></path><path d="M371.3 217.97C376.96 220.41 382.59 223.21 388.21 226.29 393.84 229.34 399.49 232.6 405.15 236 416.68 242.37 428.66 248.98 441.39 255.61 454.94 261.25 469.8 266.87 486.04 272.51 503.18 277.28 521.36 282.33 539.68 287.79 557.07 292.77 572.48 298.46 584.17 304.95 591.68 311.27 593.46 318.55 589 326.8 580.62 335.01 568.31 344.22 554.47 354.36 548.46 359.43 543.12 364.73 538.77 370.25 536.03 375.76 534.77 381.5 535.13 387.46 537.4 393.43 541.13 399.47 546.08 405.58 552.3 411.71 559.08 417.9 566.05 424.17 580.33 436.74 591.17 449.64 596.64 462.74 597.17 475.98 591.23 489.45 579.94 502.93 565.04 516.41 547.44 529.68 528.93 542.33 510.37 554.48 492.78 565.47 476.73 574.75 462.01 582.75 448.76 588.44 436.67 591.38 425.47 592.63 414.7 591.06 403.99 586.73 398.72 584.16 393.38 581.05 387.94 577.45 382.52 573.81 376.98 569.85 371.33 565.64 365.67 561.63 360.04 557.63 354.45 553.73 348.88 550.23 343.39 546.91 338.01 543.83 327.4 539.15 317.49 535.47 308.69 532.66 296.94 531.04 281.75 528.32 277.95 525.06 275.33 522.37 272.98 518.14 270.34 512.38 265.75 506.25 259.98 498.63 252.9 489.71 243.84 480.53 234.21 470.24 224.95 459.06 220.46 453.44 216.47 447.63 213.13 441.65 210.33 435.66 208.42 429.51 207.5 423.23 207.35 416.94 208.26 410.66 210.16 404.41 212.73 398.16 216.11 391.93 220.17 385.73 229.18 373.31 239.34 360.96 249.56 348.74 258.31 336.4 265.96 324.11 272.36 311.98 276.68 299.71 280.3 287.64 283.74 275.96 286.24 264.38 289.54 253.44 293.98 243.49 298.52 234.11 304.59 226.1 312.07 219.87 319.9 214.68 328.97 211.56 338.99 210.73 346.67 211.02 362.87 214.7 371.29 217.96" stroke-dasharray="11 5" transform="rotate(40.400000000000006, 400, 400)" opacity="0.65"></path><path d="M375.1 228.83C385.81 233.58 396.93 239.48 408.47 246.1 420.23 252.29 432.76 258.79 446.17 265.38 460.15 271.11 475.27 276.88 491.33 282.67 507.7 287.67 524.38 292.9 540.43 298.45 555.01 303.5 567.13 309.14 575.39 315.44 579.89 321.52 579.33 328.44 573.58 336.22 565 343.92 553.53 352.54 541.21 362.05 531.77 371.54 525.79 381.93 524.89 393.21 530.53 404.48 540.37 416.15 552.26 428.07 565.39 440.04 576 452.32 582.36 464.77 584.86 477.27 581.73 489.91 573.65 502.43 562.05 514.84 547.35 526.9 531.04 538.22 513.97 548.98 497.04 558.53 481.01 566.39 465.72 573.1 451.63 577.66 438.7 579.74 426.48 580.4 414.96 578.58 403.94 574.36 393.15 569.35 382.45 562.66 371.84 554.77 361.22 547.57 351.15 540.53 341.79 534.11 332.55 529.33 324.24 525.34 317.1 522.08 307.49 519.54 295.05 515.44 291.38 512.1 288.37 509.6 285.31 505.81 281.72 500.71 276.25 495.36 269.67 488.67 262.01 480.75 252.75 472.63 243.19 463.4 234.23 453.24 225.99 443.01 220.17 431.95 217.74 420.22 218.12 408.48 222.25 396.64 229.38 384.84 237.91 373.01 247.76 361.16 257.94 349.4 267.05 337.56 275.35 325.77 282.6 314.14 287.95 302.49 292.5 291.07 296.65 280.12 299.64 269.35 303.02 259.27 307.16 250.21 311.07 241.73 316.19 234.59 322.56 229.14 329.06 224.64 336.8 222.06 345.64 221.56 354.54 222.04 364.39 224.48 375.1 228.83" stroke-dasharray="3 9" transform="rotate(44.44, 400, 400)" opacity="0.13"></path><path d="M382.7 239.69C392.88 244.22 403.78 249.83 415.34 256.14 427.07 262.13 439.68 268.46 453.11 274.95 466.85 280.72 481.42 286.58 496.45 292.47 511.28 297.66 525.82 303.05 539.13 308.7 550.71 313.86 559.6 319.5 564.76 325.69 566.73 331.63 564.37 338.28 557.83 345.68 549.42 352.98 538.97 361.11 528.18 370.06 520.2 378.97 515.28 388.75 514.65 399.37 519.63 409.99 528.2 421 538.64 432.24 550.55 443.52 560.67 455.06 567.52 466.69 571.48 478.32 570.71 489.98 565.51 501.4 557.11 512.65 545.46 523.43 531.77 533.37 516.85 542.75 501.39 550.9 486.21 557.44 471.25 562.96 457.08 566.51 443.91 567.86 431.21 568.05 419.3 566.06 408.15 562 397.18 557.32 386.67 551.16 376.64 543.91 366.61 537.25 357.46 530.63 349.26 524.44 341.1 519.63 334 515.43 328.07 511.81 319.87 508.45 308.63 502.97 304.45 499.39 300.8 496.92 296.86 493.4 292.29 488.76 286 484.01 278.74 478.06 270.65 470.98 261.34 463.76 252 455.48 243.43 446.26 235.68 436.98 230.26 426.84 227.98 415.95 228.26 405.07 231.99 393.98 238.55 382.83 246.53 371.68 255.94 360.45 265.9 349.27 275.18 338.07 283.95 326.91 291.89 315.94 298.21 305.03 303.75 294.39 308.75 284.26 312.53 274.39 316.39 265.24 320.68 257.1 324.49 249.54 329.2 243.27 334.95 238.57 340.63 234.74 347.47 232.64 355.46 232.45 363.42 233.1 372.51 235.53 382.7 239.69" stroke-dasharray="2 7" transform="rotate(48.48, 400, 400)" opacity="0.61"></path><path d="M392.93 250.56C402.63 254.85 413.16 260.15 424.41 266.13 435.77 271.87 447.94 278 460.74 284.32 473.6 290.08 486.92 295.95 500.21 301.89 512.98 307.23 524.97 312.74 535.34 318.46 543.96 323.74 549.88 329.41 552.4 335.52 552.36 341.38 548.76 347.83 541.91 354.93 533.96 361.9 524.66 369.6 515.39 378.04 508.77 386.44 504.8 395.62 504.41 405.57 508.78 415.53 516.15 425.82 525.22 436.3 535.83 446.8 545.26 457.49 552.24 468.18 557.18 478.84 558.26 489.41 555.52 499.64 550.04 509.66 541.41 519.12 530.51 527.7 518.17 535.74 504.78 542.58 491.12 547.9 477.27 552.35 463.78 555.04 451 555.78 438.45 555.58 426.63 553.51 415.61 549.64 404.74 545.31 394.52 539.68 385 533.05 375.49 526.91 367.05 520.73 359.69 514.82 352.31 510.05 346 505.71 340.78 501.83 333.29 497.78 321.89 490.97 316.74 487.06 312.29 484.51 307.43 481.12 301.92 476.79 294.94 472.45 287.17 467.07 278.83 460.69 269.63 454.22 260.63 446.76 252.55 438.4 245.35 429.99 240.34 420.72 238.21 410.69 238.4 400.66 241.73 390.37 247.68 379.96 255.04 369.57 263.89 359.06 273.48 348.59 282.73 338.14 291.75 327.74 300.19 317.57 307.34 307.49 313.79 297.74 319.68 288.53 324.4 279.61 328.99 271.42 333.75 264.23 337.9 257.58 342.65 252.15 348.21 248.18 353.55 244.97 359.91 243.33 367.34 243.4 374.71 244.2 383.22 246.59 392.93 250.56" stroke-dasharray="9 4" transform="rotate(52.52, 400, 400)" opacity="0.89"></path><path d="M404.23 261.42C413.44 265.46 423.41 270.43 434.01 276.07 444.64 281.52 455.89 287.39 467.49 293.5 478.97 299.16 490.51 304.98 501.62 310.89 512.03 316.3 521.32 321.89 528.83 327.65 534.74 333.01 538.12 338.7 538.55 344.75 537.05 350.55 532.73 356.84 525.96 363.67 518.72 370.37 510.65 377.7 502.85 385.65 497.48 393.56 494.35 402.16 494.17 411.43 497.97 420.7 504.24 430.23 512 439.88 521.31 449.53 529.88 459.28 536.66 468.95 542.14 478.55 544.56 487.97 543.8 496.98 540.83 505.74 534.97 513.9 526.83 521.17 517.23 527.93 506.26 533.57 494.6 537.81 482.48 541.31 470.3 543.26 458.49 543.51 446.7 543.03 435.45 540.94 424.91 537.3 414.46 533.33 404.67 528.21 395.65 522.18 386.63 516.57 378.73 510.83 371.91 505.23 365.01 500.57 359.12 496.19 354.16 492.13 346.77 487.54 334.19 479.55 327.83 475.27 322.55 472.57 316.83 469.19 310.53 465.06 303.03 460.98 294.97 456.03 286.58 450.21 277.67 444.34 269.13 437.59 261.6 430 254.99 422.38 250.41 413.95 248.45 404.77 248.54 395.59 251.47 386.13 256.8 376.53 263.48 366.96 271.68 357.27 280.73 347.61 289.73 338 298.77 328.47 307.47 319.19 315.21 310.05 322.41 301.26 329.1 293.03 334.76 285.1 340.19 277.89 345.6 271.64 350.36 265.89 355.48 261.27 361.17 257.98 366.56 255.34 372.77 254.12 379.9 254.42 386.94 255.33 395.03 257.67 404.23 261.42" stroke-dasharray="2 4" transform="rotate(56.56, 400, 400)" opacity="0.27"></path><path d="M414.89 272.29C423.55 276.06 432.77 280.69 442.4 285.94 452.03 291.08 461.98 296.65 471.96 302.49 481.72 307.98 491.2 313.67 499.94 319.48 507.94 324.89 514.66 330.47 519.59 336.21 523.18 341.61 524.54 347.28 523.45 353.24 521.03 358.97 516.46 365.11 510.12 371.67 503.77 378.12 496.96 385.09 490.56 392.56 486.32 400 483.95 408.01 483.94 416.57 487.2 425.13 492.47 433.86 498.99 442.62 507 451.38 514.59 460.13 520.93 468.73 526.54 477.24 529.8 485.48 530.52 493.26 529.57 500.8 526.09 507.7 520.47 513.74 513.54 519.34 505.08 523.88 495.67 527.17 485.66 529.87 475.24 531.21 464.85 531.09 454.33 530.41 444.08 528.35 434.34 524.97 424.62 521.37 415.45 516.76 406.96 511.32 398.46 506.22 390.98 500.94 384.46 495.69 377.84 491.19 372.07 486.84 367.02 482.71 359.33 477.73 345.01 468.75 337.4 464.12 331.39 461.22 324.96 457.8 318.08 453.79 310.3 449.87 302.17 445.23 293.95 439.85 285.47 434.48 277.51 428.33 270.61 421.44 264.61 414.53 260.48 406.89 258.69 398.55 258.69 390.22 261.22 381.61 265.92 372.88 271.88 364.17 279.33 355.37 287.72 346.61 296.26 337.93 305.07 329.34 313.76 321.04 321.83 312.88 329.53 305.1 336.82 297.87 343.28 290.94 349.49 284.71 355.57 279.37 361.05 274.49 366.7 270.63 372.69 267.97 378.37 265.86 384.65 265.01 391.63 265.51 398.5 266.5 406.24 268.76 414.89 272.29" stroke-dasharray="8 1" transform="rotate(60.599999999999994, 400, 400)" opacity="0.37"></path><path d="M423.28 283.15C431.3 286.64 439.62 290.92 448.07 295.77 456.48 300.56 464.91 305.78 473.08 311.29 480.99 316.54 488.35 322.02 494.78 327.64 500.56 332.96 505.01 338.45 507.8 344.09 509.59 349.45 509.5 355.04 507.46 360.86 504.62 366.49 500.18 372.45 494.53 378.73 489.17 384.92 483.62 391.51 478.52 398.5 475.3 405.45 473.57 412.86 473.7 420.69 476.48 428.52 480.84 436.42 486.22 444.26 492.95 452.09 499.5 459.83 505.2 467.33 510.6 474.75 514.26 481.83 515.95 488.42 516.48 494.79 514.9 500.52 511.43 505.43 506.87 509.98 500.81 513.57 493.64 516.06 485.87 518.08 477.44 518.93 468.73 518.53 459.81 517.73 450.88 515.76 442.2 512.67 433.49 509.44 425.11 505.32 417.2 500.45 409.29 495.87 402.18 491.04 395.82 486.18 389.37 481.9 383.54 477.66 378.23 473.55 372.67 470.06 367.41 466.6 362.32 463.16 356.74 460.2 351.07 457.07 345.22 453.7 338.67 450.62 331.78 447.14 324.59 443.19 316.79 439.36 308.83 434.96 300.98 429.96 293.08 424.98 285.8 419.36 279.58 413.1 274.22 406.84 270.54 399.93 268.93 392.42 268.86 384.91 270.99 377.18 275.06 369.34 280.28 361.54 286.9 353.67 294.5 345.87 302.41 338.15 310.75 330.57 319.17 323.28 327.24 316.14 335.13 309.38 342.74 303.17 349.77 297.22 356.56 291.94 363.17 287.48 369.3 283.4 375.46 280.26 381.78 278.17 387.82 276.54 394.23 276.01 401.1 276.65 407.88 277.7 415.26 279.87 423.28 283.15" stroke-dasharray="9 6" transform="rotate(64.64, 400, 400)" opacity="0.61"></path><path d="M428.12 294.02C435.42 297.21 442.72 301.11 449.88 305.55 456.99 309.95 463.84 314.78 470.21 319.9 476.32 324.85 481.72 330.04 486.13 335.4 491.34 343.18 493.89 359.22 490.94 367.55 488.07 373.01 484.09 378.72 479.31 384.68 474.99 390.56 470.65 396.74 466.74 403.21 464.4 409.66 463.23 416.44 463.46 423.52 465.8 430.59 469.33 437.63 473.66 444.55 479.19 451.44 484.66 458.17 489.58 464.6 496.34 473.94 501.75 490.02 499.86 496.27 495.26 501.29 479.29 506.21 469.12 505.87 461.95 505.01 454.51 503.18 447.03 500.4 439.52 497.53 432.07 493.9 424.83 489.59 417.58 485.5 410.86 481.15 404.64 476.69 398.35 472.68 392.44 468.64 386.84 464.63 381.03 461.11 375.35 457.57 369.72 454.01 363.69 450.86 357.54 447.56 351.22 444.09 344.4 440.86 337.35 437.33 330.15 433.45 322.59 429.69 315.03 425.48 307.73 420.8 300.55 416.17 294.03 411.01 288.53 405.33 283.83 399.66 280.6 393.46 279.17 386.76 279.03 380.06 280.79 373.2 284.24 366.28 288.69 359.39 294.45 352.47 301.17 345.67 308.29 338.94 315.94 332.37 323.82 326.1 331.59 319.98 339.35 314.23 346.95 309 354.2 304.01 361.27 299.62 368.17 295.99 374.72 292.66 381.23 290.16 387.75 288.59 394.05 287.37 400.53 287.11 407.23 287.87 413.86 288.94 420.83 290.99 428.12 294.02" stroke-dasharray="7 6" transform="rotate(68.68, 400, 400)" opacity="0.26"></path><path d="M428.68 304.88C441.67 310.74 453.54 318.9 463.24 328.35 472.12 337.34 477.5 347.32 478.3 357.76 477.54 367.6 472.52 378.22 464.58 389.41 458.75 400.36 454.26 412.28 453.22 424.88 458.63 437.49 466.51 449.59 474.23 460.48 484.79 475.55 479.56 493.03 465.5 493.14 454.32 491.28 441.66 486.36 428.67 478.72 415.68 471.78 403.55 463.92 392.21 455.93 380.23 449.42 368.01 442.55 355.45 435.32 341.68 428.94 327.53 421.42 314.3 412.64 301.94 404.04 292.92 393.75 289.41 381.93 290.08 370.1 296.84 357.94 307.81 346.24 320.54 334.8 335.03 324.22 349.65 315.46 363.58 307.44 377.22 301.76 390.3 299.22 402.85 297.76 415.69 299.56 428.68 304.88" stroke-dasharray="9 3" transform="rotate(72.72, 400, 400)" opacity="0.55"></path><path d="M424.87 315.75C436.13 320.96 445.59 328.2 452.59 336.65 459.02 344.82 462.23 353.97 461.77 363.58 460.62 372.79 456.45 382.65 450.42 392.89 446.45 402.95 443.52 413.67 442.98 424.7 447.29 435.72 453.29 446 459.24 454.98 468.02 474.03 444.58 476.54 428.14 467.86 416.79 461.82 405.38 454.78 394.14 447.44 382.5 441.17 370.41 434.44 358.11 427.4 345.25 421.03 332.38 413.79 320.76 405.66 310.19 397.7 302.6 388.5 299.65 378.21 300.01 367.93 305.44 357.57 314.52 347.81 325.3 338.24 338 329.59 351.17 322.59 364.23 316.16 377.23 311.79 389.59 310.07 401.7 309.14 413.6 310.96 424.87 315.75" stroke-dasharray="1 5" transform="rotate(76.76, 400, 400)" opacity="0.39"></path><path d="M417.26 326.61C426.75 331.15 434.16 337.43 439.15 344.8 443.84 352.03 445.79 360.18 444.97 368.77 444.05 377.12 441.07 386.02 436.91 395.13 434.55 404.14 432.9 413.55 432.75 422.98 436.08 432.4 440.43 440.94 444.73 448.18 452.66 463.14 436.92 464.3 423.33 456.99 413.7 451.84 403.39 445.7 392.84 439.14 382.11 433.3 370.85 426.96 359.55 420.33 348.14 414.19 337 407.38 327.21 399.99 318.49 392.75 312.3 384.64 309.88 375.86 310 367.07 314.18 358.46 321.4 350.52 330.12 342.72 340.7 335.84 351.97 330.43 363.48 325.44 375.12 322.19 386.2 321.13 397.22 320.63 407.77 322.39 417.26 326.61" stroke-dasharray="1 5" transform="rotate(80.80000000000001, 400, 400)" opacity="0.98"></path><path d="M407.03 337.48C414.75 341.31 420.49 346.6 424.16 352.83 427.71 359 429.14 366.01 428.59 373.41 428.26 380.68 426.56 388.41 424.11 396.24 423.06 404.02 422.39 412.01 422.51 419.83 425 427.64 427.96 434.54 430.77 440.23 436.74 451.73 425.85 452.09 414.96 446.13 407.09 441.87 398.25 436.67 388.98 431 379.69 425.78 369.91 420.06 360.23 414.06 350.69 408.39 341.58 402.22 333.76 395.69 326.86 389.27 322.03 382.3 320.12 375 320.03 367.69 323.09 360.73 328.54 354.48 335.19 348.32 343.51 343.03 352.58 339.01 362.03 335.26 371.77 332.96 381.07 332.42 390.45 332.24 399.3 333.87 407.03 337.48" stroke-dasharray="9 6" transform="rotate(84.84, 400, 400)" opacity="0.09"></path><path d="M395.72 348.34C407.75 354.65 413.4 365.41 413.3 377.57 414.36 389.54 413.21 403.01 412.27 415.44 419.24 432.32 419.45 443.29 404.31 435.26 392.02 428.73 376.11 419.01 360.67 408.53 346.19 398.83 334.35 387.4 330.36 375.69 331.12 363.98 340.47 354.16 353.56 348.31 368.13 343.08 383.69 342.62 395.72 348.34" stroke-dasharray="8 6" transform="rotate(88.88, 400, 400)" opacity="0.56"></path><path d="M385.07 359.21C393.85 363.99 398.53 372.14 399.6 381.37 401.64 390.57 402.17 400.85 402.03 410.1 406.06 422.53 404.11 430.28 393 424.4 384.04 419.48 372.44 411.92 361.46 403.65 351.31 395.77 343.25 386.71 340.6 377.9 340.72 369.09 346.68 362.14 355.46 358.31 365.32 354.77 376.28 354.76 385.07 359.21" stroke-dasharray="7 3" transform="rotate(92.92, 400, 400)" opacity="0.64"></path><path d="M376.69 370.07C388.15 376.6 392.69 391.89 391.79 404.13 396.49 416.35 394.4 420.5 382.76 413.53 371.1 407.2 355.06 393.29 350.84 381.48 351.65 369.66 365.21 364.14 376.69 370.07" stroke-dasharray="10 6" transform="rotate(96.96, 400, 400)" opacity="0.17"></path></g></svg>