<svg xmlns="http://www.w3.org/2000/svg" version="1.1" xmlns:xlink="http://www.w3.org/1999/xlink" xmlns:svgjs="http://svgjs.dev/svgjs" viewBox="0 0 800 800"><defs><linearGradient x1="50%" y1="0%" x2="50%" y2="100%" id="cccoil-grad"><stop stop-color="hsl(37, 99%, 67%)" stop-opacity="1" offset="0%"></stop><stop stop-color="hsl(316, 73%, 52%)" stop-opacity="1" offset="100%"></stop></linearGradient></defs><g stroke="url(#cccoil-grad)" fill="none" stroke-linecap="round"><circle r="412.5" cx="400" cy="400" stroke-width="7" stroke-dasharray="829 2592" transform="rotate(360, 400, 400)" stroke-dashoffset="84" opacity="0.05"></circle><circle r="396" cx="400" cy="400" stroke-width="7" stroke-dasharray="763 2488" transform="rotate(345, 400, 400)" stroke-dashoffset="84" opacity="0.09"></circle><circle r="379.5" cx="400" cy="400" stroke-width="7" stroke-dasharray="699 2384" transform="rotate(330, 400, 400)" stroke-dashoffset="84" opacity="0.13"></circle><circle r="363" cx="400" cy="400" stroke-width="7" stroke-dasharray="639 2281" transform="rotate(315, 400, 400)" stroke-dashoffset="84" opacity="0.17"></circle><circle r="346.5" cx="400" cy="400" stroke-width="7" stroke-dasharray="581 2177" transform="rotate(300, 400, 400)" stroke-dashoffset="84" opacity="0.21"></circle><circle r="330" cx="400" cy="400" stroke-width="7" stroke-dasharray="525 2073" transform="rotate(285, 400, 400)" stroke-dashoffset="84" opacity="0.25"></circle><circle r="313.5" cx="400" cy="400" stroke-width="7" stroke-dasharray="473 1970" transform="rotate(270, 400, 400)" stroke-dashoffset="84" opacity="0.29"></circle><circle r="297" cx="400" cy="400" stroke-width="7" stroke-dasharray="423 1866" transform="rotate(255, 400, 400)" stroke-dashoffset="84" opacity="0.33"></circle><circle r="280.5" cx="400" cy="400" stroke-width="7" stroke-dasharray="376 1762" transform="rotate(240, 400, 400)" stroke-dashoffset="84" opacity="0.37"></circle><circle r="264" cx="400" cy="400" stroke-width="7" stroke-dasharray="332 1659" transform="rotate(225, 400, 400)" stroke-dashoffset="84" opacity="0.41"></circle><circle r="247.5" cx="400" cy="400" stroke-width="7" stroke-dasharray="290 1555" transform="rotate(210, 400, 400)" stroke-dashoffset="84" opacity="0.45"></circle><circle r="231" cx="400" cy="400" stroke-width="7" stroke-dasharray="252 1451" transform="rotate(195, 400, 400)" stroke-dashoffset="84" opacity="0.49"></circle><circle r="214.5" cx="400" cy="400" stroke-width="7" stroke-dasharray="216 1348" transform="rotate(180, 400, 400)" stroke-dashoffset="84" opacity="0.53"></circle><circle r="198" cx="400" cy="400" stroke-width="7" stroke-dasharray="182 1244" transform="rotate(165, 400, 400)" stroke-dashoffset="84" opacity="0.56"></circle><circle r="181.5" cx="400" cy="400" stroke-width="7" stroke-dasharray="152 1140" transform="rotate(150, 400, 400)" stroke-dashoffset="84" opacity="0.60"></circle><circle r="165" cx="400" cy="400" stroke-width="7" stroke-dasharray="124 1037" transform="rotate(135, 400, 400)" stroke-dashoffset="84" opacity="0.64"></circle><circle r="148.5" cx="400" cy="400" stroke-width="7" stroke-dasharray="100 933" transform="rotate(120, 400, 400)" stroke-dashoffset="84" opacity="0.68"></circle><circle r="132" cx="400" cy="400" stroke-width="7" stroke-dasharray="77 829" transform="rotate(105, 400, 400)" stroke-dashoffset="84" opacity="0.72"></circle><circle r="115.5" cx="400" cy="400" stroke-width="7" stroke-dasharray="58 726" transform="rotate(90, 400, 400)" stroke-dashoffset="84" opacity="0.76"></circle><circle r="99" cx="400" cy="400" stroke-width="7" stroke-dasharray="41 622" transform="rotate(75, 400, 400)" stroke-dashoffset="84" opacity="0.80"></circle><circle r="82.5" cx="400" cy="400" stroke-width="7" stroke-dasharray="28 518" transform="rotate(60, 400, 400)" stroke-dashoffset="84" opacity="0.84"></circle><circle r="66" cx="400" cy="400" stroke-width="7" stroke-dasharray="17 415" transform="rotate(45, 400, 400)" stroke-dashoffset="84" opacity="0.88"></circle><circle r="49.5" cx="400" cy="400" stroke-width="7" stroke-dasharray="8 311" transform="rotate(30, 400, 400)" stroke-dashoffset="84" opacity="0.92"></circle><circle r="33" cx="400" cy="400" stroke-width="7" stroke-dasharray="3 207" transform="rotate(15, 400, 400)" stroke-dashoffset="84" opacity="0.96"></circle><circle r="16.5" cx="400" cy="400" stroke-width="7" stroke-dasharray="0 104" stroke-dashoffset="84" opacity="1.00"></circle></g></svg>